<svg width="195" height="195" viewBox="0 0 195 195" fill="none" xmlns="http://www.w3.org/2000/svg">
<path fill-rule="evenodd" clip-rule="evenodd" d="M119.356 15.6461C126.669 22.6336 133.169 30.4336 138.856 38.8023C153.725 60.8211 162.5 87.1461 162.5 115.502C162.5 151.415 133.412 180.502 97.5 180.502C61.5875 180.502 32.5 151.415 32.5 115.502C32.5 94.8648 38.025 75.5273 47.6938 58.9523C48.9937 56.5961 50.375 54.4023 51.8375 52.2086C53.7875 49.2023 58.2563 50.2586 59.15 53.6711C59.6375 55.4586 59.9625 56.4336 60.775 58.0586C65.2438 68.8648 75.4813 76.4211 87.9937 76.4211C104.731 76.4211 115.7 62.8523 115.7 46.1148C115.7 37.0961 114.075 27.0211 112.531 19.3836C111.719 15.4836 116.512 12.8836 119.356 15.6461ZM68.9829 130.615C68.9829 144.752 80.6829 156.127 95.1454 156.127C116.677 156.127 134.145 138.658 134.064 117.127C134.064 108.433 133.089 99.8209 131.22 91.5334C130.57 88.5271 126.833 87.5521 124.558 89.6646C116.027 97.7084 103.758 102.827 91.8142 105.265C77.5142 108.19 68.9829 117.452 68.9829 130.615Z" fill="#F14823"/>
<path fill-rule="evenodd" clip-rule="evenodd" d="M87 24.5C74.58 24.5 64.5 34.58 64.5 47C64.5 59.42 74.58 69.5 87 69.5C99.42 69.5 109.5 59.42 109.5 47C109.5 34.58 99.42 24.5 87 24.5ZM77.4375 49.25C77.4375 47.6975 78.6975 46.4375 80.25 46.4375C81.8025 46.4375 83.0625 47.6975 83.0625 49.25C83.0625 50.8025 81.8025 52.0625 80.25 52.0625C78.6975 52.0625 77.4375 50.8025 77.4375 49.25ZM90.9375 49.25C90.9375 47.6975 92.1975 46.4375 93.75 46.4375C95.3025 46.4375 96.5625 47.6975 96.5625 49.25C96.5625 50.8025 95.3025 52.0625 93.75 52.0625C92.1975 52.0625 90.9375 50.8025 90.9375 49.25ZM69 46.9994C69 56.9219 77.0775 64.9994 87 64.9994C96.9225 64.9994 105 56.9219 105 46.9994C105 45.2219 104.73 43.5119 104.257 41.9144C102.638 42.2969 100.95 42.4994 99.195 42.4994C91.6125 42.4994 84.9075 38.7419 80.835 32.9819C78.63 38.3594 74.4225 42.7019 69.1125 45.0644C69.045 45.6944 69 46.3469 69 46.9994Z" fill="#1FD65D"/>
</svg>
