<svg width="232" height="232" viewBox="0 0 232 232" fill="none" xmlns="http://www.w3.org/2000/svg">
<circle cx="116" cy="116" r="116" fill="#FDFDFD"/>
<path fill-rule="evenodd" clip-rule="evenodd" d="M138.356 34.6461C145.669 41.6336 152.169 49.4336 157.856 57.8023C172.725 79.8211 181.5 106.146 181.5 134.502C181.5 170.415 152.412 199.502 116.5 199.502C80.5875 199.502 51.5 170.415 51.5 134.502C51.5 113.865 57.025 94.5273 66.6938 77.9523C67.9937 75.5961 69.375 73.4023 70.8375 71.2086C72.7875 68.2023 77.2563 69.2586 78.15 72.6711C78.6375 74.4586 78.9625 75.4336 79.775 77.0586C84.2438 87.8648 94.4813 95.4211 106.994 95.4211C123.731 95.4211 134.7 81.8523 134.7 65.1148C134.7 56.0961 133.075 46.0211 131.531 38.3836C130.719 34.4836 135.512 31.8836 138.356 34.6461ZM87.9829 149.615C87.9829 163.752 99.6829 175.127 114.145 175.127C135.677 175.127 153.145 157.658 153.064 136.127C153.064 127.433 152.089 118.821 150.22 110.533C149.57 107.527 145.833 106.552 143.558 108.665C135.027 116.708 122.758 121.827 110.814 124.265C96.5142 127.19 87.9829 136.452 87.9829 149.615Z" fill="#F14823"/>
<path fill-rule="evenodd" clip-rule="evenodd" d="M106 43.5C93.58 43.5 83.5 53.58 83.5 66C83.5 78.42 93.58 88.5 106 88.5C118.42 88.5 128.5 78.42 128.5 66C128.5 53.58 118.42 43.5 106 43.5ZM96.4375 68.25C96.4375 66.6975 97.6975 65.4375 99.25 65.4375C100.802 65.4375 102.062 66.6975 102.062 68.25C102.062 69.8025 100.802 71.0625 99.25 71.0625C97.6975 71.0625 96.4375 69.8025 96.4375 68.25ZM109.938 68.25C109.938 66.6975 111.198 65.4375 112.75 65.4375C114.302 65.4375 115.562 66.6975 115.562 68.25C115.562 69.8025 114.302 71.0625 112.75 71.0625C111.198 71.0625 109.938 69.8025 109.938 68.25ZM88 65.9994C88 75.9219 96.0775 83.9994 106 83.9994C115.923 83.9994 124 75.9219 124 65.9994C124 64.2219 123.73 62.5119 123.257 60.9144C121.638 61.2969 119.95 61.4994 118.195 61.4994C110.613 61.4994 103.908 57.7419 99.835 51.9819C97.63 57.3594 93.4225 61.7019 88.1125 64.0644C88.045 64.6944 88 65.3469 88 65.9994Z" fill="#1FD65D"/>
</svg>
